<?xml version="1.0" standalone="no"?>
<!DOCTYPE svg PUBLIC "-//W3C//DTD SVG 20010904//EN"
 "http://www.w3.org/TR/2001/REC-SVG-20010904/DTD/svg10.dtd">
<svg version="1.0" xmlns="http://www.w3.org/2000/svg"
 width="2448.000000pt" height="1960.000000pt" viewBox="0 0 2448.000000 1960.000000"
 preserveAspectRatio="xMidYMid meet">

<g transform="translate(0.000000,1960.000000) scale(0.100000,-0.100000)"
fill="#000000" stroke="none">
<path d="M14430 13040 c-36 -5 -159 -9 -275 -10 -115 0 -248 -5 -295 -10 -47
-5 -168 -12 -270 -14 -1090 -27 -1249 -34 -1365 -62 -86 -21 -92 -23 -185 -69
-84 -41 -156 -90 -215 -147 l-40 -38 -4750 0 c-4121 0 -4766 -2 -4870 -15
-218 -27 -330 -53 -407 -95 -10 -6 -24 -10 -31 -10 -7 0 -22 -8 -33 -18 -10
-10 -37 -31 -59 -47 -62 -46 -63 -48 -105 -90 -56 -59 -100 -109 -100 -117 0
-3 -11 -19 -23 -35 -27 -32 -86 -168 -99 -228 -5 -22 -14 -60 -20 -85 -8 -32
-13 -393 -15 -1232 l-3 -1187 22 -3 c20 -3 23 -10 26 -52 4 -68 -4 -96 -28
-96 -20 0 -20 -9 -20 -798 0 -783 0 -798 21 -852 11 -30 25 -70 30 -88 10 -31
58 -109 87 -141 7 -7 20 -24 29 -37 21 -32 139 -127 195 -157 26 -14 73 -32
105 -42 32 -9 68 -21 81 -26 14 -5 948 -9 2278 -9 l2256 0 19 -22 c10 -13 18
-30 19 -39 1 -49 158 -272 208 -294 12 -5 22 -15 22 -22 0 -33 258 -203 309
-203 14 0 32 -6 40 -14 41 -35 241 -75 381 -75 140 0 340 40 381 75 8 8 26 14
40 14 53 0 309 170 309 205 0 8 6 15 13 15 14 0 66 53 114 115 36 48 103 167
103 184 0 7 7 22 16 34 l17 22 671 -3 671 -3 -3 1020 -2 1021 -3795 0 -3795 0
0 50 0 50 3795 0 3795 0 0 395 c0 262 4 402 11 418 6 13 25 32 42 43 30 18 61
19 635 22 409 2 616 -1 643 -8 28 -8 46 -21 59 -43 19 -30 20 -53 20 -429 l0
-398 3785 0 3785 0 0 -50 0 -50 -3785 0 -3785 0 0 -1010 0 -1010 -25 0 -25 0
0 1448 c0 796 -4 1452 -8 1458 -21 32 -53 34 -644 35 -429 2 -599 -1 -615 -9
-11 -6 -26 -26 -32 -43 -8 -23 -11 -445 -11 -1465 l0 -1434 678 -1 c372 0
2051 0 3730 1 l3052 2 20 -24 c11 -12 19 -31 20 -41 1 -55 168 -297 205 -297
7 0 15 -9 18 -19 10 -40 251 -201 301 -201 11 0 27 -6 35 -14 41 -37 233 -75
376 -75 132 0 324 40 366 75 8 8 24 14 35 14 51 1 304 171 304 205 0 8 6 15
14 15 34 0 206 245 206 294 1 12 9 31 19 43 l19 23 1391 0 c931 0 1398 3 1411
10 10 5 34 10 54 10 19 0 37 4 40 9 3 4 23 11 45 15 22 3 62 17 89 31 27 14
54 25 59 25 5 0 27 13 49 30 21 16 44 30 50 30 27 0 254 237 254 265 0 2 15
28 33 57 58 92 124 349 114 440 -2 24 -12 101 -21 171 -9 71 -18 154 -20 185
-2 31 -6 75 -9 97 -4 22 -11 92 -18 157 -12 125 -13 127 -76 128 -12 0 -40 17
-61 38 l-39 37 -6 295 c-12 553 -77 1015 -208 1485 -65 233 -146 448 -264 700
-84 180 -97 218 -102 301 -8 117 -7 119 124 130 59 5 189 9 288 8 188 -1 247
-10 342 -54 24 -11 45 -20 48 -20 14 0 113 -75 133 -101 13 -16 33 -53 45 -82
20 -48 22 -76 27 -398 4 -272 8 -349 19 -362 22 -27 124 -23 164 5 58 41 68
53 94 103 31 60 35 154 10 230 -9 28 -21 88 -27 135 -5 47 -16 128 -25 180 -8
52 -15 116 -15 141 0 116 -31 204 -104 295 -51 64 -114 110 -211 154 -77 35
-92 40 -215 70 -150 38 -480 56 -755 43 -200 -10 -197 -11 -320 82 -48 36 -89
65 -91 65 -3 0 -25 13 -49 30 -44 30 -234 126 -296 150 -210 79 -275 99 -354
111 -38 6 -79 15 -90 20 -12 5 -768 10 -1870 12 -1740 2 -1852 3 -1884 20 -19
9 -42 17 -52 17 -10 0 -21 5 -24 10 -3 6 -15 10 -26 10 -10 0 -27 4 -37 9 -9
5 -35 14 -57 19 -22 6 -58 15 -80 21 -22 5 -69 17 -105 26 -36 10 -83 19 -105
22 -22 2 -49 8 -60 13 -21 9 -49 15 -150 30 -33 5 -80 14 -105 20 -25 7 -70
15 -100 20 -30 5 -140 23 -245 40 -351 58 -515 72 -895 75 -190 2 -374 -1
-410 -5z m5868 -1799 c-3 -1035 -4 -1070 -22 -1090 -11 -12 -25 -21 -33 -21
-7 0 -22 -5 -32 -12 -20 -12 -32 -10 -366 88 -521 151 -1443 270 -2280 293
l-230 6 -3 903 -2 902 1485 0 1485 0 -2 -1069z m-15668 169 l0 -890 -1455 0
-1455 0 0 704 0 703 38 70 c90 163 166 240 280 283 44 17 126 18 1320 19
l1272 1 0 -890z m3130 0 l0 -890 -1450 0 -1450 0 0 890 0 890 1450 0 1450 0 0
-890z m3120 0 l0 -890 -1450 0 -1450 0 0 890 0 890 1450 0 1450 0 0 -890z
m3130 0 l0 -890 -1450 0 -1450 0 0 890 0 890 1450 0 1450 0 0 -890z m3110 0
l0 -890 -1440 0 -1440 0 0 890 0 890 1440 0 1440 0 0 -890z m3717 850 c114
-27 293 -102 293 -121 0 -5 24 -24 53 -42 95 -62 225 -207 265 -295 9 -20 27
-53 39 -72 12 -19 32 -67 46 -106 14 -40 32 -87 40 -105 35 -78 57 -170 57
-239 l0 -70 -545 0 -545 0 0 540 0 540 88 0 c63 0 121 -8 209 -30z m822 -1127
c5 -10 43 -148 86 -308 42 -159 90 -337 107 -395 16 -58 36 -127 43 -155 16
-57 22 -880 18 -2222 l-3 -763 -685 0 -685 0 0 1930 0 1930 555 0 c518 0 555
-1 564 -17z m-11579 -2203 l0 -60 -120 0 -120 0 0 60 0 60 120 0 120 0 0 -60z
m-5090 -30 l0 -40 -1415 0 -1415 0 0 40 0 40 1415 0 1415 0 0 -40z m0 -140 l0
-40 -1415 0 -1415 0 0 40 0 40 1415 0 1415 0 0 -40z m0 -140 l0 -40 -1415 0
-1415 0 0 40 0 40 1415 0 1415 0 0 -40z m15130 -80 l0 -100 -220 0 -220 0 0
100 0 100 220 0 220 0 0 -100z m-15130 -60 l0 -40 -1415 0 -1415 0 0 40 0 40
1415 0 1415 0 0 -40z m13411 -25 c70 -17 92 -36 70 -58 -15 -15 -14 -50 1 -65
22 -22 48 -13 69 23 12 19 26 35 31 35 14 0 101 -53 166 -102 l53 -39 -20 -26
c-35 -44 6 -90 54 -59 13 9 26 16 29 16 13 0 146 -193 146 -211 0 -2 -16 -13
-35 -23 -27 -15 -35 -25 -35 -47 0 -22 6 -30 24 -35 13 -3 33 -1 44 5 12 6 25
11 31 11 15 0 50 -122 57 -201 l7 -69 -26 0 c-28 0 -57 -23 -57 -45 0 -22 29
-45 57 -45 l26 0 -7 -69 c-7 -79 -42 -201 -57 -201 -6 0 -19 5 -31 11 -11 6
-31 8 -44 5 -18 -5 -24 -13 -24 -35 0 -22 8 -32 35 -47 19 -10 35 -21 35 -23
0 -18 -119 -193 -139 -206 -6 -3 -22 2 -36 11 -28 18 -49 14 -64 -14 -8 -16
-6 -26 10 -46 l20 -25 -65 -48 c-88 -65 -158 -101 -163 -86 -10 27 -46 63 -63
63 -32 0 -45 -27 -31 -66 7 -18 10 -38 7 -43 -9 -14 -176 -51 -230 -51 -44 0
-46 1 -46 30 0 19 -7 33 -20 40 -30 16 -60 -4 -60 -39 0 -15 -2 -30 -5 -33
-14 -14 -249 32 -270 53 -6 6 -5 16 3 29 15 25 15 53 0 68 -22 22 -48 13 -69
-23 -12 -19 -26 -35 -31 -35 -14 0 -101 53 -166 102 l-53 39 20 26 c35 44 -6
90 -54 59 -13 -9 -26 -16 -29 -16 -13 0 -146 193 -146 212 0 3 14 11 30 18 35
15 49 35 42 62 -6 23 -44 33 -70 19 -12 -6 -25 -11 -31 -11 -15 0 -50 122 -57
201 l-7 69 26 0 c28 0 57 23 57 45 0 22 -29 45 -57 45 l-26 0 7 69 c7 79 42
201 57 201 6 0 19 -5 31 -11 11 -6 31 -8 44 -5 18 5 24 13 24 35 0 22 -8 32
-35 47 -19 10 -35 21 -35 23 0 18 133 211 146 211 3 0 16 -7 29 -16 28 -18 49
-14 64 14 8 16 6 25 -10 45 l-20 26 53 39 c65 49 152 102 166 102 5 0 19 -16
31 -35 21 -36 47 -45 69 -23 15 15 16 50 1 65 -24 24 1 41 89 62 49 12 110 21
136 21 44 0 46 -1 46 -30 0 -19 7 -33 20 -40 30 -16 60 4 60 39 0 15 2 30 5
33 7 7 117 -8 196 -27z m-11091 -5 c0 -36 30 -56 60 -40 13 7 20 21 20 42 l0
31 78 -6 c42 -4 106 -15 142 -25 67 -18 67 -18 54 -75 -7 -31 9 -57 36 -57 17
0 53 36 63 63 6 15 76 -20 170 -86 l69 -49 -22 -23 c-42 -45 5 -94 56 -60 24
16 27 15 46 -2 11 -10 47 -58 80 -107 l59 -89 -38 -21 c-81 -46 -37 -109 50
-71 21 9 40 -32 62 -136 21 -100 20 -129 -6 -129 -34 0 -59 -19 -59 -45 0 -26
25 -45 59 -45 26 0 27 -29 6 -129 -22 -104 -41 -145 -62 -136 -37 16 -69 17
-82 1 -20 -24 -9 -49 32 -72 l38 -21 -59 -89 c-33 -49 -69 -97 -80 -107 -19
-17 -22 -18 -46 -2 -51 33 -92 -8 -56 -57 l20 -27 -72 -52 c-93 -65 -160 -98
-165 -82 -9 26 -45 63 -62 63 -36 0 -56 -51 -30 -77 7 -7 9 -18 6 -26 -7 -18
-121 -47 -214 -54 l-73 -6 0 31 c0 38 -29 59 -60 42 -13 -7 -20 -21 -20 -42
l0 -31 -77 6 c-43 4 -107 15 -143 25 -67 18 -67 18 -54 75 7 31 -9 57 -36 57
-17 0 -53 -36 -63 -63 -6 -15 -76 20 -170 86 l-69 49 22 23 c42 45 -5 94 -56
60 -24 -16 -27 -15 -46 2 -11 10 -47 58 -80 107 l-59 89 38 21 c68 38 49 100
-25 78 -21 -7 -40 -8 -45 -3 -14 14 -45 135 -53 202 -6 56 -6 59 15 59 36 0
61 19 61 45 0 26 -25 45 -59 45 -26 0 -27 29 -6 129 22 104 41 145 62 136 37
-16 69 -17 82 -1 20 24 9 49 -32 72 l-38 21 59 89 c33 49 69 97 80 107 19 17
22 18 46 2 51 -33 92 8 56 57 l-20 27 68 48 c93 66 163 101 169 86 10 -27 46
-63 63 -63 37 0 48 38 25 92 -5 13 -1 20 19 27 46 18 160 39 214 40 51 1 52 1
52 -29z m-2320 -105 l0 -35 -1415 0 -1415 0 0 35 0 35 1415 0 1415 0 0 -35z
m0 -140 l0 -45 -1415 0 -1415 0 0 45 0 45 1415 0 1415 0 0 -45z m-3400 -35 l0
-60 -125 0 -125 0 0 60 0 60 125 0 125 0 0 -60z m3400 -105 l0 -35 -1415 0
-1415 0 0 35 0 35 1415 0 1415 0 0 -35z m0 -135 l0 -40 -1415 0 -1415 0 0 40
0 40 1415 0 1415 0 0 -40z m0 -130 l0 -40 -1415 0 -1415 0 0 40 0 40 1415 0
1415 0 0 -40z m770 -20 l0 -60 -125 0 -125 0 0 60 0 60 125 0 125 0 0 -60z
m6830 0 l0 -60 -125 0 -125 0 0 60 0 60 125 0 125 0 0 -60z m3730 0 l0 -60
-120 0 -120 0 0 60 0 60 120 0 120 0 0 -60z m3710 -5 l0 -65 -140 0 -140 0 0
65 0 65 140 0 140 0 0 -65z"/>
<path d="M20590 10363 l0 -567 24 -25 c12 -15 65 -91 116 -171 51 -80 101
-152 111 -162 11 -9 19 -21 19 -27 0 -11 264 -421 512 -796 77 -115 147 -213
156 -217 9 -4 50 -7 90 -7 69 -1 75 1 100 29 40 43 101 167 113 230 6 30 15
73 20 95 4 22 8 330 8 685 1 641 1 646 -23 760 -13 63 -29 127 -35 142 -5 15
-13 69 -17 120 -3 51 -12 111 -19 133 -7 22 -18 81 -25 130 -8 60 -21 105 -38
135 -50 88 10 80 -584 80 l-528 0 0 -567z"/>
<path d="M20642 9134 c-29 -24 -32 -32 -32 -83 0 -49 4 -61 29 -89 l30 -32
111 0 112 0 34 34 c50 50 47 112 -9 174 -19 20 -29 22 -132 22 -105 0 -113 -1
-143 -26z"/>
<path d="M17982 8210 c-118 -31 -206 -83 -302 -180 -100 -99 -159 -205 -184
-332 -31 -150 -12 -287 57 -428 33 -68 58 -102 127 -170 139 -140 285 -200
480 -200 195 0 341 60 480 200 100 99 159 205 184 332 31 150 12 287 -57 428
-54 111 -176 237 -284 293 -147 77 -341 99 -501 57z m294 -71 c211 -38 403
-218 459 -429 8 -30 15 -95 15 -145 0 -167 -50 -287 -171 -408 -61 -62 -94
-85 -160 -116 -175 -82 -343 -82 -518 0 -66 31 -99 54 -160 116 -121 121 -171
241 -171 408 0 167 50 287 171 408 61 62 94 85 161 117 123 58 242 73 374 49z"/>
<path d="M18055 8056 c-81 -19 -140 -46 -201 -92 -282 -213 -267 -624 29 -819
164 -107 390 -107 554 0 308 203 308 637 0 840 -106 69 -263 98 -382 71z m65
-90 c0 -16 -21 -26 -54 -26 -43 0 -143 -59 -193 -115 -35 -38 -53 -51 -63 -45
-11 7 -7 16 20 47 53 61 127 111 193 132 75 24 97 25 97 7z m173 -6 c68 -21
155 -79 194 -129 35 -44 9 -49 -34 -6 -72 72 -133 106 -215 120 -24 4 -38 11
-38 20 0 20 15 19 93 -5z m-173 -86 c0 -25 -5 -54 -10 -64 -7 -13 -7 -28 1
-47 8 -23 7 -30 -7 -40 -22 -16 -34 -17 -34 -1 0 18 -31 48 -51 48 -16 0 -53
-37 -61 -61 -4 -13 -100 41 -102 56 -1 6 9 11 22 13 16 2 22 10 22 27 0 20 46
67 70 71 3 0 12 4 20 7 39 17 97 36 113 36 14 1 17 -8 17 -45z m187 24 c53
-19 153 -98 153 -120 0 -4 -17 -19 -39 -33 l-39 -26 -36 25 c-42 28 -63 25
-72 -10 -7 -26 -24 -30 -54 -14 -16 9 -17 14 -8 42 8 23 8 36 -1 49 -6 10 -11
39 -11 64 0 41 2 45 24 45 13 0 50 -10 83 -22z m262 -225 c20 -79 12 -221 -16
-267 -15 -23 -18 22 -6 72 13 57 10 142 -8 205 -9 31 -4 51 10 42 5 -2 14 -26
20 -52z m-657 -47 c16 -9 16 -12 1 -28 -11 -12 -14 -29 -10 -57 5 -39 4 -41
-40 -66 -25 -14 -49 -25 -53 -25 -5 0 -11 14 -15 30 -4 17 -11 30 -16 30 -12
0 -11 -12 0 -44 7 -18 6 -28 -4 -36 -11 -9 -16 -4 -24 27 -14 49 -14 167 0
216 l10 38 67 -37 c37 -21 75 -42 84 -48z m607 -36 c0 -61 -11 -135 -22 -147
-3 -3 -26 9 -52 27 -41 28 -44 33 -30 44 25 18 16 77 -13 92 -22 11 -20 13 40
52 62 41 63 41 70 19 3 -12 6 -51 7 -87z m-296 29 c22 -28 22 -81 -2 -110 -14
-18 -29 -24 -61 -24 -32 0 -47 6 -61 24 -34 41 -21 113 24 131 32 14 79 3 100
-21z m-198 -159 c3 -5 -1 -10 -10 -10 -9 0 -13 5 -10 10 3 6 8 10 10 10 2 0 7
-4 10 -10z m285 -4 c0 -2 -7 -7 -16 -10 -8 -3 -12 -2 -9 4 6 10 25 14 25 6z
m-356 -39 c-3 -8 8 -28 25 -46 26 -28 32 -30 55 -20 15 7 28 23 31 40 7 31 12
34 34 20 22 -14 29 -261 8 -261 -40 0 -151 44 -195 78 -47 35 -112 103 -112
116 0 16 34 3 52 -19 29 -37 43 -30 18 9 l-21 35 23 14 c21 14 80 46 85 47 1
0 0 -6 -3 -13z m314 6 c-3 -15 24 -59 43 -71 17 -11 22 -8 40 23 12 19 24 35
28 35 3 0 23 -11 44 -25 31 -22 36 -29 27 -45 -12 -23 -90 -90 -104 -90 -6 0
-16 -8 -23 -19 -6 -10 -25 -21 -42 -24 -30 -6 -44 -27 -18 -27 46 0 217 119
217 151 0 5 7 6 15 3 12 -5 10 -12 -11 -39 -36 -48 -121 -103 -193 -126 -94
-29 -91 -31 -91 60 0 44 5 83 10 86 6 3 10 17 10 30 0 13 -4 27 -10 30 -17 11
-11 24 18 39 30 17 43 20 40 9z"/>
<path d="M7184 8215 c-228 -49 -428 -230 -501 -450 -23 -69 -27 -97 -27 -200
0 -103 4 -131 27 -200 73 -223 274 -402 505 -451 86 -18 238 -18 324 0 231 49
432 228 505 451 23 69 27 97 27 200 0 103 -4 131 -27 200 -73 223 -274 402
-505 451 -83 17 -247 17 -328 -1z m300 -80 c90 -19 182 -63 256 -121 293 -230
293 -668 0 -898 -400 -314 -1000 -45 -1000 449 0 375 361 651 744 570z"/>
<path d="M7235 8053 c-183 -39 -338 -180 -389 -352 -9 -30 -16 -91 -16 -136 0
-139 45 -248 145 -348 30 -30 85 -70 122 -90 66 -34 189 -67 253 -67 17 0 66
7 108 16 189 39 344 177 396 354 23 77 22 200 -3 280 -54 171 -207 305 -396
345 -86 18 -130 18 -220 -2z m75 -87 c0 -14 -29 -26 -66 -26 -42 0 -142 -61
-191 -115 -36 -40 -53 -51 -63 -45 -12 7 -5 19 35 60 57 58 116 97 190 122 61
21 95 23 95 4z m228 -26 c34 -16 87 -53 118 -82 50 -47 54 -53 38 -65 -15 -11
-23 -7 -58 28 -49 51 -132 106 -168 113 -16 3 -39 8 -53 11 -14 3 -25 12 -25
21 0 23 67 11 148 -26z m-230 -63 c2 -26 -2 -45 -14 -58 -16 -18 -16 -42 0
-81 13 -30 -27 -27 -46 4 -28 44 -76 35 -107 -20 -9 -15 -13 -15 -55 6 -25 12
-46 25 -46 30 0 16 73 93 104 109 53 28 120 52 141 50 16 -2 21 -10 23 -40z
m187 14 c61 -29 145 -98 145 -119 0 -6 -16 -22 -36 -36 l-37 -25 -29 30 c-36
36 -62 37 -84 4 -15 -23 -43 -33 -56 -19 -3 3 -2 21 4 41 7 24 6 39 -1 46 -6
6 -11 33 -11 59 0 43 2 48 23 48 12 0 49 -13 82 -29z m286 -261 c9 -54 9 -82
-1 -132 -16 -84 -27 -105 -46 -87 -11 12 -11 27 -2 82 8 50 8 85 -1 138 -9 56
-9 74 1 86 18 23 34 -6 49 -87z m-817 51 c-11 -26 -14 -189 -4 -215 6 -18 5
-28 -5 -36 -10 -9 -16 -3 -26 27 -28 82 -8 260 27 246 10 -3 13 -12 8 -22z
m732 -27 c7 -27 -1 -193 -10 -201 -3 -3 -23 6 -45 19 -30 18 -38 27 -31 38 18
28 11 78 -11 94 -21 14 -20 15 27 45 27 17 52 31 56 31 4 0 11 -12 14 -26z
m-633 -10 c49 -25 51 -28 30 -37 -18 -8 -23 -18 -23 -49 0 -26 5 -41 16 -45
11 -4 4 -12 -26 -29 -59 -33 -70 -31 -72 14 0 20 -2 64 -4 97 -1 37 2 63 9 67
16 10 11 11 70 -18z m351 -24 c28 -27 26 -84 -2 -112 -28 -28 -92 -31 -120 -5
-62 56 -10 157 73 142 16 -3 39 -14 49 -25z m-199 -160 c3 -5 -1 -10 -10 -10
-9 0 -13 5 -10 10 3 6 8 10 10 10 2 0 7 -4 10 -10z m-78 -70 c13 -36 57 -59
81 -43 9 5 21 23 27 39 5 16 10 30 11 32 1 1 14 -2 29 -8 22 -8 25 -14 17 -22
-15 -15 -16 -84 -2 -93 6 -3 10 -29 10 -57 l0 -50 -32 6 c-81 16 -172 76 -221
146 -23 34 -22 37 21 59 48 26 46 26 59 -9z m496 -15 c16 -11 14 -16 -24 -59
-44 -50 -177 -123 -205 -112 -12 5 -14 22 -10 103 4 88 7 98 25 101 14 2 25
-6 35 -27 29 -55 71 -51 96 10 14 32 11 33 83 -16z m-571 -81 c55 -59 138
-107 201 -119 55 -11 60 -30 6 -21 -72 11 -165 61 -229 122 -33 31 -60 61 -60
66 0 22 34 2 82 -48z m642 37 c10 -16 -103 -112 -166 -141 -65 -30 -148 -49
-148 -34 0 5 29 18 64 28 75 21 153 71 192 121 26 34 47 44 58 26z"/>
</g>
</svg>
