<?xml version="1.0" encoding="utf-8"?>
<svg viewBox="-3004.407 -1790.863 6249.611 3586.882" xmlns="http://www.w3.org/2000/svg">
  <g transform="matrix(0.1, 0, 0, -0.1, -3011.105025, 2239.730014)" fill="#000000" stroke="none">
    <path d="M27280 39449 c-706 -29 -2816 -174 -4510 -310 -2933 -234 -5106 -469 -5830 -630 -1721 -382 -3126 -1137 -4300 -2309 -194 -194 -399 -412 -370 -395 8 5 105 68 215 140 1594 1045 2951 1555 4430 1665 278 21 11625 760 11663 760 l40 0 -58 -112 c-130 -250 -256 -545 -336 -784 -40 -119 -124 -428 -124 -456 0 -6 57 45 128 113 338 330 747 619 1191 843 91 46 176 86 187 90 16 5 3951 -1694 14430 -6230 7925 -3430 14418 -6240 14429 -6244 l21 -8 -23 197 c-12 108 -22 205 -22 217 -1 18 -856 420 -6256 2940 l-6254 2918 -103 170 c-422 700 -623 895 -1197 1161 -394 182 -9727 4361 -9861 4415 -227 92 -328 127 -474 165 -238 63 -287 67 -765 72 l-434 5 -306 148 c-168 81 -589 287 -936 457 -630 310 -817 399 -1080 511 -712 303 -1354 447 -2190 492 -217 11 -1014 11 -1305 -1z"/>
    <path d="M24530 36044 c-94 -4 -182 -11 -730 -54 -483 -38 -1100 -82 -2480 -175 -3344 -226 -5318 -375 -7695 -580 -606 -53 -748 -67 -1020 -101 -538 -67 -879 -149 -1142 -274 -177 -84 -287 -163 -439 -315 -144 -144 -252 -283 -469 -605 -125 -184 -157 -242 -316 -565 -602 -1224 -1079 -2391 -1530 -3745 -771 -2318 -1281 -4719 -1558 -7350 -57 -539 -64 -648 -58 -864 5 -194 21 -309 59 -446 95 -344 341 -629 760 -883 461 -279 1365 -629 2273 -878 2339 -643 5012 -740 7980 -289 984 150 2220 405 2874 595 580 168 1028 362 1386 600 169 113 251 178 369 292 329 321 522 689 601 1148 9 50 34 358 55 685 315 4696 857 8495 1641 11504 38 148 68 274 65 281 -11 29 -574 54 -826 36 -781 -55 -1255 -304 -1305 -687 l-7 -51 156 -12 c274 -21 476 -67 580 -133 69 -45 122 -116 148 -201 20 -63 23 -93 22 -237 0 -105 -8 -230 -22 -345 -12 -99 -74 -818 -137 -1597 -63 -779 -120 -1450 -126 -1490 -31 -204 -105 -370 -216 -489 -88 -93 -173 -140 -297 -166 -266 -53 -598 131 -751 419 -19 37 -42 86 -50 109 -21 60 -219 3668 -211 3849 12 273 104 566 246 785 160 246 372 426 681 579 484 241 1145 349 2041 334 l278 -5 16 56 c119 407 167 734 135 903 -40 203 -183 309 -472 347 -86 12 -382 20 -509 15z m-9845 -9517 c1885 -3673 3425 -6680 3423 -6682 -5 -5 -456 -71 -718 -104 -505 -65 -1044 -116 -1540 -145 -275 -17 -869 -40 -875 -34 -14 14 -5205 10146 -5205 10159 0 20 140 413 270 759 277 735 618 1534 958 2246 175 367 243 497 252 488 5 -5 1551 -3014 3435 -6687z m-3110 -2554 c1232 -2402 2242 -4373 2244 -4381 2 -13 -17 -14 -135 -8 -341 17 -1130 90 -1146 105 -4 4 -824 1598 -1822 3543 l-1815 3536 99 389 c102 404 173 667 266 986 29 104 54 190 54 193 0 2 3 4 8 4 4 0 1015 -1966 2247 -4367z"/>
    <path d="M28600 35550 c-460 -38 -816 -247 -1101 -648 -662 -929 -1257 -3092 -1744 -6347 -342 -2281 -591 -4847 -717 -7370 -19 -378 -17 -969 4 -1070 56 -277 165 -376 461 -421 224 -34 1153 -45 1557 -19 383 25 598 61 840 142 352 117 674 317 945 588 499 498 865 1215 1225 2400 90 298 142 481 305 1075 278 1018 436 1516 619 1964 478 1166 1093 1802 1950 2021 247 63 435 85 717 85 l189 0 -2 2941 -3 2942 -1880 713 c-1034 393 -1957 741 -2050 773 -517 179 -974 259 -1315 231z"/>
    <path d="M9240 34714 c-622 -41 -1069 -139 -1435 -314 -561 -269 -876 -711 -936 -1311 -10 -104 -2 -279 90 -1974 55 -1023 103 -1875 105 -1893 7 -50 79 -188 137 -266 134 -176 377 -306 572 -306 310 0 532 235 601 638 9 48 67 727 131 1509 63 782 124 1502 135 1600 12 98 23 234 27 303 12 262 -46 409 -195 488 -112 60 -343 106 -587 119 l-125 6 0 26 c0 42 28 141 57 200 31 65 135 177 219 237 394 281 1186 371 2077 236 64 -10 117 -14 117 -9 0 5 14 43 30 84 35 88 111 220 220 383 42 63 91 140 109 171 l31 56 -62 7 c-70 7 -1231 16 -1318 10z"/>
    <path d="M34550 30698 l0 -2863 1818 -413 c999 -227 2773 -631 3942 -897 1168 -267 2130 -485 2137 -485 11 0 13 435 13 2263 l0 2262 -3948 1498 c-2171 823 -3951 1497 -3955 1497 -4 0 -7 -1288 -7 -2862z"/>
    <path d="M43152 28088 l3 -2213 140 -32 c77 -17 871 -199 1765 -403 894 -205 2159 -495 2813 -644 l1187 -272 -2 1769 -3 1769 -2935 1114 c-1614 613 -2943 1116 -2953 1120 -16 5 -17 -103 -15 -2208z"/>
    <path d="M49750 26082 l0 -1717 693 -158 c1448 -332 4303 -988 4320 -993 16 -5 17 61 15 1336 l-3 1342 -2475 939 c-1361 516 -2492 946 -2512 954 l-38 15 0 -1718z"/>
    <path d="M55470 24340 c0 -710 3 -1290 6 -1290 8 0 2836 -650 2853 -656 12 -4 13 94 8 638 -3 354 -10 699 -16 768 -49 565 -160 752 -564 945 -162 78 -155 75 -1277 500 -503 191 -936 356 -962 366 l-48 19 0 -1290z"/>
    <path d="M33166 23654 c-403 -73 -781 -362 -1086 -830 -219 -336 -418 -845 -519 -1324 -22 -103 -61 -317 -61 -334 0 -5 36 48 80 118 488 779 1052 1242 1677 1377 72 15 148 22 288 26 l190 5 12065 -1416 c6636 -779 12095 -1420 12131 -1424 l66 -8 66 88 67 87 -32 6 c-18 3 -5512 818 -12208 1810 -6696 993 -12215 1812 -12264 1820 -112 19 -353 18 -460 -1z"/>
    <path d="M34268 21254 c-1047 -157 -1915 -1043 -2356 -2404 -159 -490 -249 -976 -294 -1585 -16 -218 -16 -1009 0 -1255 32 -490 78 -928 152 -1442 28 -191 50 -351 50 -357 0 -8 -945 -11 -3230 -11 l-3230 0 -122 26 c-310 65 -579 144 -763 226 -480 212 -741 556 -855 1127 -62 312 -71 497 -90 2031 -5 465 -13 956 -16 1092 l-6 246 -77 -35 c-550 -253 -1197 -484 -1996 -712 -299 -85 -507 -141 -1183 -317 -329 -85 -721 -188 -872 -229 -151 -40 -291 -77 -310 -80 -50 -10 -138 -57 -187 -100 -97 -83 -202 -279 -290 -540 -86 -254 -234 -777 -288 -1017 -78 -343 -100 -421 -150 -524 -53 -109 -129 -193 -223 -242 -106 -57 -223 -80 -490 -97 -2196 -139 -4335 -9 -6342 386 -358 71 -639 132 -707 155 -216 72 -389 237 -518 492 -97 191 -162 404 -275 887 -102 442 -166 682 -200 752 -60 122 -156 183 -575 369 -720 318 -1498 763 -2043 1168 l-143 106 6 -47 c3 -27 64 -671 135 -1433 138 -1475 143 -1510 221 -1776 153 -524 411 -895 734 -1055 107 -53 160 -67 460 -127 l189 -38 28 -122 c48 -216 113 -408 201 -595 27 -59 48 -109 46 -111 -2 -2 -123 -16 -269 -31 -1987 -199 -3312 -564 -3804 -1048 -159 -157 -225 -289 -234 -469 l-5 -108 28207 0 c15513 0 28206 2 28206 4 0 7 -292 250 -441 367 -1169 922 -2078 1227 -4059 1364 -373 25 -779 45 -1081 52 l-286 6 44 100 c190 432 309 941 353 1516 13 174 13 668 0 842 -14 177 -47 438 -71 569 -211 1110 -848 1908 -1670 2092 -89 20 -131 23 -299 23 -168 0 -209 -3 -300 -23 -401 -90 -728 -269 -1007 -553 -116 -118 -176 -193 -275 -344 -320 -486 -522 -1155 -607 -2010 -44 -435 -59 -939 -42 -1385 7 -162 15 -415 18 -562 l6 -268 -7096 0 -7096 0 60 125 c447 948 606 2294 423 3605 -119 857 -362 1558 -741 2133 -287 436 -669 786 -1076 985 -199 98 -375 156 -594 198 -124 23 -522 28 -655 8z m697 -1346 c738 -269 1263 -987 1469 -2009 168 -832 108 -1763 -164 -2536 -149 -422 -375 -777 -624 -979 -83 -67 -241 -162 -252 -151 -3 2 26 51 64 108 350 527 597 1210 686 1901 46 349 55 816 22 1133 -113 1106 -550 1987 -1240 2501 -109 82 -106 85 39 32z m-531 -613 c399 -84 750 -609 915 -1365 59 -270 89 -537 98 -845 29 -1126 -333 -2132 -865 -2399 -69 -35 -191 -66 -256 -66 -239 1 -476 162 -669 454 -442 673 -588 1903 -346 2926 169 716 511 1211 894 1295 80 18 146 18 229 0z m19166 -978 c198 -81 347 -184 505 -349 134 -139 219 -262 314 -449 86 -171 171 -412 214 -609 150 -674 90 -1461 -155 -2057 -111 -270 -271 -499 -439 -626 -26 -19 -48 -27 -77 -27 -23 0 -42 2 -42 5 0 3 15 29 33 58 211 330 378 775 452 1205 44 253 58 448 52 722 -7 334 -39 565 -121 861 -49 179 -96 300 -186 484 -159 324 -358 575 -603 760 -42 31 -77 59 -77 61 0 10 34 0 130 -39z m-409 -443 c225 -66 422 -303 559 -674 46 -122 105 -364 129 -520 125 -826 -60 -1711 -434 -2084 -87 -85 -166 -135 -254 -158 -83 -21 -131 -22 -206 -3 -95 25 -173 73 -260 160 -138 137 -241 319 -325 574 -112 338 -157 664 -147 1071 9 399 66 706 184 1010 83 212 164 344 292 470 150 148 305 200 462 154z"/>
    <path d="M34246 18709 c-79 -13 -171 -65 -253 -142 -102 -97 -103 -99 -45 -133 246 -143 428 -439 526 -854 45 -188 60 -327 60 -560 0 -300 -36 -529 -121 -773 -119 -344 -332 -607 -544 -674 -32 -10 -59 -22 -59 -27 0 -23 102 -159 170 -227 107 -107 198 -151 320 -157 146 -7 251 40 376 170 87 90 135 161 207 305 189 377 284 927 257 1486 -28 564 -168 1040 -392 1338 -103 136 -229 225 -357 249 -60 11 -75 11 -145 -1z"/>
    <path d="M53000 17441 c-71 -22 -167 -91 -210 -151 l-20 -28 53 -30 c67 -38 173 -151 226 -239 84 -142 146 -332 177 -543 22 -154 15 -459 -15 -604 -76 -368 -254 -649 -457 -717 -22 -8 -41 -18 -42 -24 -4 -18 61 -109 119 -166 31 -31 83 -69 116 -85 49 -25 70 -29 138 -29 68 0 89 5 137 29 209 105 373 436 445 896 25 164 25 607 0 770 -76 488 -259 835 -481 912 -52 18 -142 22 -186 9z"/>
    <path d="M10140 17763 c97 -376 193 -526 403 -628 129 -63 262 -94 674 -159 1019 -161 2024 -275 2933 -331 525 -32 669 -37 1370 -42 1063 -8 1303 9 1505 102 120 55 194 130 259 261 37 75 189 455 184 459 -2 1 -115 -8 -253 -21 -262 -23 -602 -47 -940 -65 -330 -17 -1400 -23 -1790 -10 -1558 52 -2986 235 -4187 537 -97 24 -181 44 -187 44 -5 0 8 -66 29 -147z"/>
    <path d="M11080 16336 c0 -2 23 -58 51 -123 161 -377 209 -405 844 -488 1181 -154 2307 -224 3385 -212 457 5 503 9 616 61 65 30 143 101 196 179 35 51 151 278 145 283 -1 1 -162 -2 -357 -8 -382 -11 -1289 -4 -1695 12 -1032 41 -1955 124 -2895 260 -293 43 -290 42 -290 36z"/>
    <path d="M43720 10170 c-792 -72 -1329 -486 -1452 -1120 -18 -95 -15 -368 5 -457 54 -236 149 -406 326 -583 206 -205 445 -343 876 -505 345 -129 497 -208 612 -319 74 -69 107 -122 128 -202 31 -121 10 -258 -56 -358 -66 -99 -203 -180 -369 -217 -126 -29 -397 -31 -575 -5 -235 35 -520 119 -730 216 -60 27 -87 36 -90 27 -3 -6 -48 -187 -100 -402 -53 -214 -98 -397 -101 -406 -9 -31 243 -131 481 -190 277 -68 490 -93 795 -93 344 1 556 30 813 115 392 128 685 363 844 675 208 408 187 915 -52 1275 -170 255 -468 462 -930 644 -286 112 -356 141 -456 188 -197 92 -326 195 -380 304 -21 41 -24 63 -24 153 0 95 3 111 28 162 93 189 359 293 702 274 286 -16 516 -68 763 -173 45 -20 84 -34 86 -32 4 6 214 770 218 794 2 16 -13 26 -90 57 -178 74 -417 134 -652 163 -150 19 -488 27 -620 15z"/>
    <path d="M34750 10133 c-306 -11 -658 -39 -852 -69 l-108 -16 0 -2204 c0 -2089 1 -2203 18 -2208 27 -8 288 -34 477 -48 230 -16 930 -16 1115 0 675 59 1087 207 1370 491 240 241 354 518 353 856 -1 455 -221 806 -634 1010 -58 29 -141 63 -183 76 -42 13 -76 27 -76 30 0 4 27 17 60 29 128 48 300 161 405 266 110 110 205 274 246 429 32 117 32 344 1 470 -30 120 -115 290 -192 382 -203 245 -578 423 -1000 477 -243 31 -635 42 -1000 29z m656 -743 c238 -30 418 -129 489 -270 125 -247 33 -537 -213 -668 -160 -85 -313 -112 -644 -112 l-238 0 0 519 0 519 88 7 c48 3 96 7 107 9 50 8 339 5 411 -4z m64 -1808 c190 -41 311 -97 415 -194 149 -139 207 -341 160 -563 -35 -168 -154 -316 -316 -394 -195 -94 -470 -128 -831 -104 l-98 6 0 640 0 639 288 -5 c237 -4 304 -9 382 -25z"/>
    <path d="M18770 8635 c0 -984 -4 -1508 -11 -1572 -42 -382 -198 -591 -481 -648 -156 -31 -436 -15 -632 36 -44 11 -82 16 -86 12 -7 -8 -111 -751 -110 -790 0 -19 12 -24 108 -47 237 -56 497 -82 732 -72 504 21 839 148 1090 412 196 207 308 464 373 857 21 131 21 149 24 1710 l4 1577 -506 0 -505 0 0 -1475z"/>
    <path d="M21000 7908 c-370 -1212 -679 -2222 -686 -2246 l-13 -42 526 2 527 3 121 435 c67 239 139 497 160 573 l38 137 644 -2 645 -3 172 -570 172 -570 546 -3 547 -2 -13 42 c-7 24 -320 1034 -696 2246 l-684 2202 -666 0 -666 0 -674 -2202z m1394 1100 c47 -189 158 -588 247 -888 88 -300 162 -555 165 -567 l6 -23 -497 0 c-468 0 -496 1 -491 18 75 240 318 1151 381 1425 47 203 85 370 85 373 0 2 4 4 8 4 5 0 48 -154 96 -342z"/>
    <path d="M25000 7865 l0 -2245 510 0 510 0 0 905 0 905 805 0 805 0 0 415 0 415 -805 0 -805 0 0 510 0 510 865 0 865 0 0 415 0 415 -1375 0 -1375 0 0 -2245z"/>
    <path d="M28440 7908 c-370 -1212 -679 -2222 -686 -2246 l-13 -42 526 2 527 3 121 435 c67 239 139 497 160 573 l38 137 644 -2 645 -3 172 -570 172 -570 546 -3 547 -2 -13 42 c-7 24 -320 1034 -696 2246 l-684 2202 -666 0 -666 0 -674 -2202z m1394 1100 c47 -189 158 -588 247 -888 88 -300 162 -555 165 -567 l6 -23 -497 0 c-468 0 -496 1 -491 18 75 240 318 1151 381 1425 47 203 85 370 85 373 0 2 4 4 8 4 5 0 48 -154 96 -342z"/>
    <path d="M37810 8788 c0 -817 4 -1377 10 -1463 28 -377 97 -659 224 -920 234 -477 625 -745 1216 -832 165 -24 540 -24 713 1 854 121 1349 630 1481 1523 33 219 36 372 36 1690 l0 1323 -505 0 -504 0 -4 -1412 c-3 -1076 -7 -1433 -16 -1498 -24 -161 -68 -309 -127 -429 -50 -101 -66 -125 -143 -201 -97 -97 -181 -145 -317 -181 -106 -29 -325 -31 -429 -5 -103 26 -223 89 -294 153 -149 134 -238 318 -293 604 -22 114 -22 119 -25 1542 l-4 1427 -509 0 -510 0 0 -1322z"/>
    <path d="M14173 3011 c-271 -44 -456 -210 -520 -466 -24 -98 -24 -344 0 -435 46 -174 155 -320 292 -392 120 -62 174 -73 390 -72 180 0 194 1 270 27 197 66 332 210 387 414 28 105 31 363 5 466 -56 226 -200 372 -429 437 -82 24 -304 35 -395 21z m240 -315 c139 -42 208 -189 194 -411 -7 -106 -34 -202 -71 -250 -40 -52 -125 -89 -205 -89 -36 0 -83 6 -105 13 -49 17 -112 73 -137 124 -60 116 -64 344 -9 471 24 57 89 120 143 140 54 19 131 20 190 2z"/>
    <path d="M25611 3009 c-298 -46 -490 -249 -532 -564 -32 -242 41 -493 183 -635 74 -75 189 -133 307 -156 106 -21 390 -15 489 10 78 20 191 71 295 133 l77 47 0 288 0 288 -315 0 -315 0 0 -140 0 -140 140 0 141 0 -3 -62 c-3 -61 -4 -63 -43 -85 -125 -72 -292 -83 -394 -27 -109 58 -153 164 -153 364 0 102 4 138 22 194 49 155 196 235 355 195 53 -13 122 -70 142 -117 8 -18 19 -32 26 -29 7 2 96 19 199 37 l186 33 -13 37 c-59 167 -168 271 -331 315 -72 20 -368 29 -463 14z"/>
    <path d="M36300 3013 c-278 -36 -472 -206 -541 -472 -27 -101 -29 -303 -4 -411 51 -226 193 -388 399 -457 78 -26 89 -27 291 -27 185 0 219 3 289 22 82 23 216 86 311 146 l55 36 0 285 0 285 -320 0 -320 0 0 -140 0 -140 140 0 141 0 -3 -62 c-3 -61 -4 -63 -43 -85 -83 -47 -160 -66 -254 -61 -103 5 -150 26 -208 92 -63 71 -78 133 -78 311 1 134 3 156 24 209 59 148 203 217 358 171 53 -16 124 -79 138 -124 4 -14 12 -20 23 -17 9 2 99 19 200 37 209 37 195 23 137 145 -61 126 -173 213 -315 244 -56 12 -357 22 -420 13z"/>
    <path d="M38553 3011 c-265 -43 -447 -201 -515 -448 -28 -104 -31 -351 -5 -457 44 -175 158 -321 308 -395 121 -59 214 -74 408 -69 141 4 164 7 241 34 205 72 340 224 387 436 23 103 23 350 0 438 -60 228 -204 377 -427 440 -84 24 -305 35 -397 21z m244 -316 c61 -18 126 -78 154 -139 61 -139 43 -419 -35 -521 -40 -51 -125 -89 -205 -89 -178 -2 -274 111 -288 339 -10 161 31 304 105 365 70 58 170 74 269 45z"/>
    <path d="M42810 3013 c-198 -26 -324 -104 -388 -241 -23 -49 -27 -70 -27 -147 0 -78 4 -97 28 -147 62 -126 194 -200 485 -273 138 -34 176 -51 212 -91 38 -43 40 -96 8 -144 -34 -49 -81 -70 -158 -70 -115 1 -192 56 -226 165 -17 51 -20 55 -49 55 -52 0 -350 -22 -354 -26 -10 -9 24 -136 52 -194 42 -91 133 -180 212 -209 97 -37 196 -51 348 -51 169 0 254 16 354 65 165 82 250 227 241 414 -4 69 -10 98 -33 144 -35 70 -102 135 -183 176 -63 32 -232 85 -385 120 -105 24 -134 37 -160 73 -27 37 -14 84 32 115 40 27 141 32 194 9 42 -17 83 -66 99 -118 l12 -40 65 6 c36 3 124 8 194 12 l129 7 -7 36 c-34 181 -131 287 -310 336 -60 16 -312 28 -385 18z"/>
    <path d="M11506 2973 c9 -16 127 -192 261 -393 l243 -365 0 -277 0 -278 205 0 205 0 0 278 0 278 260 386 c143 213 260 389 260 392 0 4 -102 5 -227 4 l-227 -3 -130 -217 c-72 -119 -133 -219 -136 -222 -3 -3 -66 96 -140 219 l-135 225 -229 0 -228 0 18 -27z"/>
    <path d="M15962 2548 c4 -430 5 -457 26 -532 50 -181 172 -304 348 -351 94 -26 388 -32 493 -11 201 41 339 170 398 373 14 49 17 127 21 516 l4 457 -206 0 -205 0 -3 -442 c-3 -427 -4 -445 -24 -488 -39 -83 -107 -122 -210 -122 -102 -1 -173 42 -211 127 -16 36 -18 82 -21 483 l-3 442 -205 0 -205 0 3 -452z"/>
    <path d="M18250 2331 l0 -671 205 0 205 0 0 270 0 270 40 0 c92 0 119 -31 271 -312 l123 -228 233 0 234 0 -102 198 c-137 265 -197 343 -283 372 -36 11 -41 30 -8 30 34 0 138 58 179 99 23 24 55 68 70 99 26 52 28 66 28 172 0 105 -3 119 -27 166 -55 104 -113 150 -228 180 -54 14 -136 17 -502 21 l-438 5 0 -671z m727 374 c70 -41 82 -141 25 -198 -38 -38 -118 -57 -244 -57 l-98 0 0 141 0 141 143 -4 c118 -3 147 -7 174 -23z"/>
    <path d="M20950 2835 l0 -165 210 0 210 0 0 -505 0 -505 205 0 205 0 0 505 0 505 210 0 210 0 0 165 0 165 -625 0 -625 0 0 -165z"/>
    <path d="M23332 2948 c-11 -29 -124 -329 -251 -667 -127 -337 -231 -615 -231 -617 0 -2 94 -4 209 -4 l210 0 26 88 c44 149 8 132 278 132 l234 0 33 -110 33 -110 214 0 c117 0 213 3 213 8 0 4 -111 305 -247 669 l-248 663 -227 0 -227 0 -19 -52z m318 -553 l67 -220 -140 -3 c-77 -1 -142 0 -145 3 -5 4 106 383 131 445 11 30 3 51 87 -225z"/>
    <path d="M27400 2330 l0 -670 530 0 530 0 0 160 0 160 -322 2 -323 3 -3 508 -2 507 -205 0 -205 0 0 -670z"/>
    <path d="M29380 2330 l0 -670 210 0 210 0 0 670 0 670 -210 0 -210 0 0 -670z"/>
    <path d="M30820 2330 l0 -670 190 0 190 0 0 360 c0 198 3 360 8 360 4 0 117 -162 251 -360 l244 -360 193 0 194 0 0 670 0 670 -190 0 -190 0 0 -365 c0 -201 -3 -365 -7 -365 -5 0 -119 163 -254 363 l-246 362 -192 3 -191 2 0 -670z"/>
    <path d="M33090 2330 l0 -670 565 0 565 0 0 150 0 150 -360 0 -361 0 3 133 3 132 318 3 317 2 0 135 0 135 -320 0 -321 0 3 108 3 107 348 3 347 2 0 140 0 140 -555 0 -555 0 0 -670z"/>
    <path d="M40340 2330 l0 -670 565 0 565 0 0 150 0 150 -360 0 -361 0 3 133 3 132 323 3 322 2 0 135 0 135 -325 0 -326 0 3 108 3 107 348 3 347 2 0 140 0 140 -555 0 -555 0 0 -670z"/>
    <path d="M45110 2330 l0 -670 205 0 205 0 0 270 0 270 230 0 230 0 0 -270 0 -270 205 0 205 0 0 630 0 630 -62 1 c-35 0 -79 2 -98 4 -19 2 -69 6 -110 9 -42 3 -90 10 -108 15 l-32 9 -2 -211 -3 -212 -227 -3 -228 -2 0 235 0 235 -205 0 -205 0 0 -670z"/>
    <path d="M47380 2330 l0 -670 565 0 565 0 0 150 0 150 -355 0 -355 0 0 135 0 135 320 0 320 0 0 135 0 135 -320 0 -320 0 0 110 0 110 345 0 345 0 0 140 0 140 -555 0 -555 0 0 -670z"/>
    <path d="M49460 2331 l0 -671 205 0 205 0 0 270 0 270 40 0 c55 0 103 -22 132 -60 12 -17 77 -131 143 -253 l121 -222 232 -3 c127 -1 232 0 232 3 0 3 -47 96 -105 208 -122 234 -178 311 -254 346 -28 14 -48 28 -44 32 5 3 31 14 58 23 100 32 199 132 227 229 6 23 12 83 12 132 0 77 -4 99 -27 150 -49 105 -130 170 -248 195 -35 8 -208 14 -491 17 l-438 5 0 -671z m727 376 c45 -24 65 -58 65 -112 0 -73 -34 -109 -121 -129 -39 -9 -113 -16 -165 -16 l-96 0 0 141 0 141 143 -4 c111 -3 149 -7 174 -21z"/>
    <path d="M51630 2330 l0 -670 560 0 560 0 0 150 0 150 -355 0 -356 0 3 133 3 132 318 3 317 2 0 135 0 135 -320 0 -321 0 3 108 3 107 343 3 342 2 0 140 0 140 -550 0 -550 0 0 -670z"/>
  </g>
</svg>